# xmcd
#
# Track frame offsets: 
#        182
#        672
#        16887
#        18100
#        33137
#        51812
#        66495
#        94040
#        117162
#        133362
#        160290
#        162600
#        182417
#        200162
#        202710
#
# Disc length: 3216 seconds
#
# Revision: 3
# Processed by: cddbd v1.5.2PL0 Copyright (c) Steve Scherf et al.
# Submitted via: ExactAudioCopy v0.99pb4
#
DISCID=c20c8e0f
DTITLE=Chris Thomas - 21st Century Blues...From Da 'Hood
DYEAR=1994
DGENRE=Blues
TTITLE0=Intro
TTITLE1=21CB
TTITLE2=Hellhounds
TTITLE3=Kkkrossroads
TTITLE4=Kickin' True Blue
TTITLE5=Up From Da Underground
TTITLE6=Blues From Da 'Hood
TTITLE7=Da Gambler
TTITLE8=Time Bomb
TTITLE9=Homesick Blues
TTITLE10=Phone Interlude
TTITLE11=My Pain, Your Pleasure
TTITLE12=Kill Somebody Tonight
TTITLE13=Anotherdeadhomie
TTITLE14=Stop
EXTD=YEAR: 1994
EXTT0=
EXTT1=
EXTT2=
EXTT3=
EXTT4=
EXTT5=
EXTT6=
EXTT7=
EXTT8=
EXTT9=
EXTT10=
EXTT11=
EXTT12=
EXTT13=
EXTT14=
PLAYORDER=
